<svg id="Layer_1" data-name="Layer 1" xmlns="http://www.w3.org/2000/svg" width="24" height="24" viewBox="0 0 24 24"><defs><style>.cls-1{fill:#111147;}</style></defs><title>mail</title><path class="cls-1" d="M21.8906,2.76H2.1094A2.113,2.113,0,0,0,0,4.87V18.9323a2.1129,2.1129,0,0,0,2.1094,2.1094H21.8906A2.1128,2.1128,0,0,0,24,18.9323V4.87A2.1128,2.1128,0,0,0,21.8906,2.76Zm-.2913,1.4063-9.5546,9.5546L2.4075,4.1667ZM1.4063,18.6411V5.1543l6.7724,6.7144Zm.9943.9943,6.7767-6.7767,2.3746,2.3542a.7031.7031,0,0,0,.9922-.0022l2.3153-2.3153,6.74,6.74Zm20.1931-.9943-6.74-6.74,6.74-6.74Z"/></svg>