<svg id="Layer_1" data-name="Layer 1" xmlns="http://www.w3.org/2000/svg" width="24" height="24" viewBox="0 0 24 24"><defs><style>.cls-1{fill:#111147;}</style></defs><title>phone</title><path class="cls-1" d="M21.17,18.0618l-3.4679-3.4679a1.8489,1.8489,0,0,0-2.615,0l-1.01,1.01A17.0229,17.0229,0,0,1,8.4211,9.9481L9.5285,8.8408a1.8514,1.8514,0,0,0,0-2.6151L6.0606,2.7578A1.8481,1.8481,0,0,0,3.4434,2.76L1.2642,4.9562A3.31,3.31,0,0,0,.33,8.6315,24.704,24.704,0,0,0,15.3935,23.6947a3.3385,3.3385,0,0,0,3.5253-.7692c.0124-.0109.0246-.0222.0364-.0341L21.17,20.6768A1.8511,1.8511,0,0,0,21.17,18.0618Zm-1.1047,1.51-2.1644,2.1645a.7621.7621,0,0,0-.0749.0712,1.7677,1.7677,0,0,1-1.9174.4118A23.129,23.129,0,0,1,1.8054,8.1166a1.7624,1.7624,0,0,1,.4808-1.9783.7834.7834,0,0,0,.06-.0548L4.55,3.8626a.2866.2866,0,0,1,.4056,0L8.4237,7.33a.2873.2873,0,0,1,0,.4056L6.8894,9.27a.7812.7812,0,0,0-.1281.9362,18.5857,18.5857,0,0,0,7.0572,7.0572.7812.7812,0,0,0,.9362-.1281l1.4369-1.4369a.2869.2869,0,0,1,.4056,0l3.4679,3.4679A.2871.2871,0,0,1,20.065,19.5721Z"/><path class="cls-1" d="M12.6116,6.2226a.7812.7812,0,0,0,0,1.5624A3.6325,3.6325,0,0,1,16.24,11.4134a.7812.7812,0,1,0,1.5623,0A5.1967,5.1967,0,0,0,12.6116,6.2226Z"/><path class="cls-1" d="M12.6116,3.1565a.7812.7812,0,0,0,0,1.5624,6.702,6.702,0,0,1,6.6945,6.6945.7812.7812,0,1,0,1.5624,0A8.2663,8.2663,0,0,0,12.6116,3.1565Z"/><path class="cls-1" d="M20.5938,3.4313A11.2148,11.2148,0,0,0,12.6116.125a.7812.7812,0,0,0,0,1.5624,9.7371,9.7371,0,0,1,9.7261,9.726.7812.7812,0,0,0,1.5624,0A11.2148,11.2148,0,0,0,20.5938,3.4313Z"/></svg>